<svg width="100%" height="100%" viewBox="0 0 400 400" xmlns="http://www.w3.org/2000/svg" class="draggables">
        <polygon points="194 134 394 134 294 234" fill="Orange" class="draggable" opacity="0.9" stroke="DarkSlateGray" stroke-width="1.5" transform="matrix(-0.7193399071693419,-0.694658100605011,0.694658100605011,-0.7193399071693419,377.66888189315796,520.5879933834076)" data-cx="300.0000305175781" data-cy="93.99996948242188"></polygon><polygon points="88 150 188 250 88 350" fill="Green" class="draggable" opacity="0.9" stroke="DarkSlateGray" stroke-width="1.5" transform="matrix(-1,0,0,-1,275.99999999999994,500)" data-cx="142" data-cy="160"></polygon><polygon points="240 272 140 272 240 172" fill="Red" class="draggable" opacity="0.9" stroke="DarkSlateGray" stroke-width="1.5" transform="matrix(0.6946590542793274,-0.7193391919136046,0.7193391919136046,0.6946590542793274,-101.67852509021758,204.46012270450592)" data-cx="192" data-cy="129.99998474121094"></polygon><polygon points="114 174 14 174 64 124" fill="Navy" class="draggable" opacity="0.9" stroke="DarkSlateGray" stroke-width="1.5" transform="matrix(8.324263056636028e-9,0.9999999403953551,-0.9999999403953551,8.324263056636028e-9,212.99997941008996,85.00001236383818)" data-cx="67.99999237060547" data-cy="59.0000114440918"></polygon><polygon points="138 102 138 202 88 152" fill="Brown" class="draggable" opacity="0.9" stroke="DarkSlateGray" stroke-width="1.5" transform="matrix(1,0,0,1,0,0)" data-cx="117" data-cy="60"></polygon><polygon points="38 200 88 150 138 200 88 250" fill="Yellow" class="draggable" opacity="0.9" stroke="DarkSlateGray" stroke-width="1.5" transform="matrix(1,0,0,1,0,0)" data-cx="92" data-cy="110"></polygon><polygon points="284 100 384 100 434 50 334 50" fill="SkyBlue" class="draggable" opacity="0.9" stroke="DarkSlateGray" stroke-width="1.5" transform="matrix(0.6691311001777649,-0.7431451082229614,0.7431451082229614,0.6691311001777649,63.046106576919556,291.60424959659576)" data-cx="391.00006103515625" data-cy="76.99998474121094"></polygon></svg>
