<svg width="100%" height="100%" viewBox="0 0 200 200" xmlns="http://www.w3.org/2000/svg" class="draggables">
        <polygon points="0,0 66.66666666666667,66.66666666666667 133.33333333333334,0" fill="Orange" class="draggable" opacity="0.9" stroke="DarkSlateGray" stroke-width="1.5" tag="lgTriangle1"></polygon><polygon points="133.33333333333334,0 66.66666666666667,66.66666666666667 200,66.66666666666667" fill="Green" class="draggable" opacity="0.9" stroke="DarkSlateGray" stroke-width="1.5" tag="lgTriangle2"></polygon><polygon points="0,66.66666666666667 0,133.33333333333334 66.66666666666667,133.33333333333334" fill="Navy" class="draggable" opacity="0.9" stroke="DarkSlateGray" stroke-width="1.5" tag="smTriangle1"></polygon><polygon points="133.33333333333334,0 200,0 200,66.66666666666667" fill="Brown" class="draggable" opacity="0.9" stroke="DarkSlateGray" stroke-width="1.5" tag="smTriangle2"></polygon><polygon points="133.33333333333334,66.66666666666667 200,66.66666666666667 200,100 166.66666666666669,100 166.66666666666669,166.66666666666669 133.33333333333334,166.66666666666669" fill="Red" class="draggable" opacity="0.9" stroke="DarkSlateGray" stroke-width="1.5" tag="leg1"></polygon><polygon points="200,100 200,200 133.33333333333334,200 133.33333333333334,166.66666666666669 166.66666666666669,166.66666666666669 166.66666666666669,100" fill="Yellow" class="draggable" opacity="0.9" stroke="DarkSlateGray" stroke-width="1.5" tag="leg2"></polygon><polygon points="0,0 0,66.66666666666667 66.66666666666667,133.33333333333334 66.66666666666667,66.66666666666667" fill="SkyBlue" class="draggable" opacity="0.9" stroke="DarkSlateGray" stroke-width="1.5" tag="smParallelogram"></polygon><polygon points="0,133.33333333333334 0,200 33.333333333333336,200 106.66666666666667,133.33333333333334" fill="Purple" class="draggable" opacity="0.9" stroke="DarkSlateGray" stroke-width="1.5" tag="pentagon1"></polygon><polygon points="33.333333333333336,200 133.33333333333334,200 133.33333333333334,133.33333333333334 106.66666666666667,133.33333333333334" fill="LimeGreen" class="draggable" opacity="0.9" stroke="DarkSlateGray" stroke-width="1.5" tag="pentagon2"></polygon><path d="M100,77.77777777777779 A22.222222222222225,22.222222222222225 0 0,0 100,122.22222222222223 L100,122.22222222222223 100,77.77777777777779" fill="Magenta" class="draggable" opacity="0.9" stroke="DarkSlateGray" stroke-width="1.5" tag="leftSemiCircle"></path><path d="M100,77.77777777777779 A22.222222222222225,22.222222222222225 0 0,1 100,122.22222222222223 L100,122.22222222222223 100,77.77777777777779" fill="Magenta" class="draggable" opacity="0.9" stroke="DarkSlateGray" stroke-width="1.5" tag="rightSemiCircle"></path><path d="M100,66.66666666666667 L100,77.77777777777779 100,77.77777777777779 A22.222222222222225,22.222222222222225 0 0,1 122.22222222222223,100 L122.22222222222223,100 133.33333333333334,100 L133.33333333333334,100 133.33333333333334,66.66666666666667 L133.33333333333334,66.66666666666667 100,66.66666666666667" fill="Pink" class="draggable" opacity="0.9" stroke="DarkSlateGray" stroke-width="1.5" tag="topRightArch"></path><path d="M100,66.66666666666667 L100,77.77777777777779 100,77.77777777777779 A22.222222222222225,22.222222222222225 0 0,0 77.77777777777779,100 L77.77777777777779,100 66.66666666666667,100 L66.66666666666667,100 66.66666666666667,66.66666666666667 L66.66666666666667,66.66666666666667 100,66.66666666666667" fill="Pink" class="draggable" opacity="0.9" stroke="DarkSlateGray" stroke-width="1.5" tag="topLeftArch"></path><path d="M100,133.33333333333334 L100,133.33333333333334 100,122.22222222222223 A22.222222222222225,22.222222222222225 0 0,0 122.22222222222223,100 L122.22222222222223,100 133.33333333333334,100 L133.33333333333334,100 133.33333333333334,133.33333333333334 L133.33333333333334,133.33333333333334 100,133.33333333333334" fill="Gray" class="draggable" opacity="0.9" stroke="DarkSlateGray" stroke-width="1.5" tag="bottomRightArch"></path><path d="M100,133.33333333333334 L100,133.33333333333334 100,122.22222222222223 A22.222222222222225,22.222222222222225 0 0,1 77.77777777777779,100 L77.77777777777779,100 66.66666666666667,100 L66.66666666666667,100 66.66666666666667,133.33333333333334 L66.66666666666667,133.33333333333334 100,133.33333333333334" fill="Gray" class="draggable" opacity="0.9" stroke="DarkSlateGray" stroke-width="1.5" tag="bottomLeftArch"></path></svg>
