<svg width="100%" height="100%" viewBox="0 0 400 400" xmlns="http://www.w3.org/2000/svg" class="draggables">
        <polygon points="116 180 316 180 216 280" fill="Orange" class="draggable" opacity="0.9" stroke="DarkSlateGray" stroke-width="1.5" transform="matrix(1.0000000000000002,0,0,1.0000000000000002,0,-2.842170943040401e-14)" data-cx="440" data-cy="326"></polygon><polygon points="102 186 202 286 102 386" fill="Green" class="draggable" opacity="0.9" stroke="DarkSlateGray" stroke-width="1.5" transform="matrix(-0.6946585178375245,0.7193403840065004,-0.7193403840065004,-0.6946585178375245,463.3194855451584,375.33256053924566)" data-cx="208.0000457763672" data-cy="271.9999694824219"></polygon><polygon points="166 300 66 300 166 200" fill="Red" class="draggable" opacity="0.9" stroke="DarkSlateGray" stroke-width="1.5" transform="matrix(-0.6946583390235901,0.719340205192566,-0.719340205192566,-0.6946583390235901,376.41538500785833,340.22105324268347)" data-cx="131.99996948242188" data-cy="295.99993896484375"></polygon><polygon points="120 226 20 226 70 176" fill="Navy" class="draggable" opacity="0.9" stroke="DarkSlateGray" stroke-width="1.5" transform="matrix(5.967058513967062e-10,1.0000003576278687,-1.0000003576278687,5.967058513967062e-10,271.00006031870714,130.9999840271486)" data-cx="67.99998474121094" data-cy="203.00001525878906"></polygon><polygon points="100 6 100 106 50 56" fill="Brown" class="draggable" opacity="0.9" stroke="DarkSlateGray" stroke-width="1.5" transform="matrix(-0.719339907169342,-0.6946581006050111,0.6946581006050111,-0.719339907169342,90.04966735839845,148.3823852539063)" data-cx="75.00003051757812" data-cy="55.99999237060547"></polygon><polygon points="44 152 94 102 144 152 94 202" fill="Yellow" class="draggable" opacity="0.9" stroke="DarkSlateGray" stroke-width="1.5" transform="matrix(1.0000000000000002,0,0,1.0000000000000002,1.4210854715202004e-14,0)" data-cx="216" data-cy="264"></polygon><polygon points="44 102 144 102 194 52 94 52" fill="SkyBlue" class="draggable" opacity="0.9" stroke="DarkSlateGray" stroke-width="1.5" transform="matrix(5.967058513967062e-10,-1.0000003576278687,1.0000003576278687,5.967058513967062e-10,41.999978066684136,196.00002983573796)" data-cx="121.00000762939453" data-cy="132.99998474121094"></polygon></svg>
